STARTFONT 2.1
FONT -sco-terminal-medium-r-normal--25-180-100-100-m-170-IBM437-1
SIZE 18 100 100
FONTBOUNDINGBOX 17 24 -1 -5

STARTPROPERTIES 26
FONTNAME_REGISTRY ""
FAMILY_NAME "terminal"
FOUNDRY "sco"
WEIGHT_NAME "medium"
SLANT "r"
SETWIDTH_NAME "normal"
ADD_STYLE_NAME ""
PIXEL_SIZE 25
POINT_SIZE 180
RESOLUTION_X 100
RESOLUTION_Y 100
SPACING "m"
AVERAGE_WIDTH 170
CHARSET_REGISTRY "IBM437"
CHARSET_ENCODING "1"
CHARSET_COLLECTIONS "ASCII IBM437-1 ADOBE-STANDARD"
FULL_NAME "-sco-terminal-medium-r-normal--25-180-100-100-m-150-IBM437-1"
COPYRIGHT "Copyright (c) 1987 Adobe Systems, Inc., Portions Copyright 1988 Digital Equipment Corp."
CAP_HEIGHT 14
X_HEIGHT 11
WEIGHT 10
QUAD_WIDTH 15
_XMBDFED_INFO "Edited with xmbdfed 4.4."
DEFAULT_CHAR 0
FONT_DESCENT 5
FONT_ASCENT 19
ENDPROPERTIES

CHARS 255

STARTCHAR char0
ENCODING 0
SWIDTH 680 0
DWIDTH 17 0
BBX 0 0 0 0
BITMAP
ENDCHAR

STARTCHAR char1
ENCODING 1
SWIDTH 680 0
DWIDTH 17 0
BBX 13 18 1 -2
BITMAP
0F80
38E0
6030
4010
C018
8D88
8D88
8008
8008
8008
9048
98C8
8D88
8708
8010
6030
38E0
0F80
ENDCHAR

STARTCHAR char2
ENCODING 2
SWIDTH 680 0
DWIDTH 17 0
BBX 12 18 1 -3
BITMAP
1F80
3FC0
7FE0
7FE0
7FE0
E670
E670
FFF0
FFF0
FFF0
FFF0
EF70
E070
F0F0
7FE0
7FE0
3FC0
1F80
ENDCHAR

STARTCHAR char3
ENCODING 3
SWIDTH 680 0
DWIDTH 17 0
BBX 10 10 2 1
BITMAP
7380
FFC0
FFC0
FFC0
FFC0
FFC0
7F80
3F00
1E00
0C00
ENDCHAR

STARTCHAR char4
ENCODING 4
SWIDTH 680 0
DWIDTH 17 0
BBX 10 16 1 -2
BITMAP
0C00
1E00
1E00
3F00
3F00
7F80
7F80
FFC0
FFC0
7F80
7F80
3F00
3F00
1E00
1E00
0C00
ENDCHAR

STARTCHAR char5
ENCODING 5
SWIDTH 680 0
DWIDTH 17 0
BBX 9 13 1 -1
BITMAP
3E00
7F00
7F00
3E00
7F00
FF80
FF80
FF80
7F00
1C00
1C00
3E00
3E00
ENDCHAR

STARTCHAR char6
ENCODING 6
SWIDTH 680 0
DWIDTH 17 0
BBX 10 13 1 -1
BITMAP
0C00
1E00
3F00
7F80
7F80
FFC0
FFC0
FFC0
FFC0
7F80
0C00
0C00
3F00
ENDCHAR

STARTCHAR char7
ENCODING 7
SWIDTH 680 0
DWIDTH 17 0
BBX 7 5 2 4
BITMAP
7C
FE
FE
FE
7C
ENDCHAR

STARTCHAR char8
ENCODING 8
SWIDTH 680 0
DWIDTH 17 0
BBX 11 20 0 -4
BITMAP
FFE0
FFE0
FFE0
FFE0
FFE0
FFE0
FFE0
F1E0
E0E0
E0E0
E0E0
F1E0
FFE0
FFE0
FFE0
FFE0
FFE0
FFE0
FFE0
FFE0
ENDCHAR

STARTCHAR char9
ENCODING 9
SWIDTH 680 0
DWIDTH 17 0
BBX 9 9 1 2
BITMAP
3E00
6300
C180
C180
C180
C180
C180
6300
3E00
ENDCHAR

STARTCHAR char10
ENCODING 10
SWIDTH 680 0
DWIDTH 17 0
BBX 11 20 0 -4
BITMAP
FFE0
FFE0
FFE0
FFE0
FFE0
F1E0
FFE0
FFE0
FFE0
FFE0
FFE0
FFE0
FFE0
F1E0
FFE0
FFE0
FFE0
FFE0
FFE0
FFE0
ENDCHAR

STARTCHAR char11
ENCODING 11
SWIDTH 680 0
DWIDTH 17 0
BBX 10 11 1 -1
BITMAP
0FC0
07C0
03C0
06C0
3E00
6300
C180
C180
C180
6300
3E00
ENDCHAR

STARTCHAR char12
ENCODING 12
SWIDTH 680 0
DWIDTH 17 0
BBX 10 13 1 -3
BITMAP
3F00
6180
C0C0
C0C0
C0C0
C0C0
6180
3F00
0C00
0C00
3F00
0C00
0C00
ENDCHAR

STARTCHAR char13
ENCODING 13
SWIDTH 680 0
DWIDTH 17 0
BBX 8 14 1 -1
BITMAP
18
1C
1E
1F
1B
1B
1B
18
18
18
18
78
F8
F0
ENDCHAR

STARTCHAR char14
ENCODING 14
SWIDTH 680 0
DWIDTH 17 0
BBX 9 16 1 -2
BITMAP
1800
1C00
1E00
1B00
1D80
1F80
1B80
1980
1980
7980
F980
F180
0180
0780
0F80
0F00
ENDCHAR

STARTCHAR char164
ENCODING 15
SWIDTH 680 0
DWIDTH 17 0
BBX 11 10 2 2
BITMAP
C060
7FC0
3180
60C0
60C0
60C0
60C0
3180
7FC0
C060
ENDCHAR

STARTCHAR char16
ENCODING 16
SWIDTH 680 0
DWIDTH 17 0
BBX 9 16 1 -2
BITMAP
C000
E000
F000
F800
FC00
FE00
FF00
FF80
FF80
FF00
FE00
FC00
F800
F000
E000
C000
ENDCHAR

STARTCHAR char17
ENCODING 17
SWIDTH 680 0
DWIDTH 17 0
BBX 9 16 1 -2
BITMAP
0180
0380
0780
0F80
1F80
3F80
7F80
FF80
FF80
7F80
3F80
1F80
0F80
0780
0380
0180
ENDCHAR

STARTCHAR char18
ENCODING 18
SWIDTH 680 0
DWIDTH 17 0
BBX 8 13 2 -1
BITMAP
18
3C
7E
FF
18
18
18
18
18
FF
7E
3C
18
ENDCHAR

STARTCHAR char19
ENCODING 19
SWIDTH 680 0
DWIDTH 17 0
BBX 6 12 3 0
BITMAP
CC
CC
CC
CC
CC
CC
CC
CC
CC
00
CC
CC
ENDCHAR

STARTCHAR char20
ENCODING 20
SWIDTH 680 0
DWIDTH 17 0
BBX 10 9 1 -1
BITMAP
00C0
7F80
F700
7700
7700
7700
7700
7700
E000
ENDCHAR

STARTCHAR char167
ENCODING 21
SWIDTH 680 0
DWIDTH 17 0
BBX 11 18 2 -2
BITMAP
0FE0
1860
3060
3060
3000
7800
CE00
C300
6180
30C0
1860
0E60
03C0
0180
C180
C180
C300
FE00
ENDCHAR

STARTCHAR char22
ENCODING 22
SWIDTH 680 0
DWIDTH 17 0
BBX 7 4 2 5
BITMAP
FE
FE
FE
FE
ENDCHAR

STARTCHAR char23
ENCODING 23
SWIDTH 680 0
DWIDTH 17 0
BBX 8 14 1 -2
BITMAP
18
3C
7E
FF
18
18
18
18
FF
7E
3C
18
00
FF
ENDCHAR

STARTCHAR char24
ENCODING 24
SWIDTH 680 0
DWIDTH 17 0
BBX 9 14 1 -1
BITMAP
1C00
3E00
7F00
FF80
1C00
1C00
1C00
1C00
1C00
1C00
1C00
1C00
1C00
1C00
ENDCHAR

STARTCHAR char25
ENCODING 25
SWIDTH 680 0
DWIDTH 17 0
BBX 9 14 1 -1
BITMAP
1C00
1C00
1C00
1C00
1C00
1C00
1C00
1C00
1C00
1C00
FF80
7F00
3E00
1C00
ENDCHAR

STARTCHAR char26
ENCODING 26
SWIDTH 680 0
DWIDTH 17 0
BBX 9 5 1 4
BITMAP
0600
0700
FF80
0700
0600
ENDCHAR

STARTCHAR char27
ENCODING 27
SWIDTH 680 0
DWIDTH 17 0
BBX 9 5 1 4
BITMAP
3000
7000
FF80
7000
3000
ENDCHAR

STARTCHAR char28
ENCODING 28
SWIDTH 680 0
DWIDTH 17 0
BBX 9 5 1 3
BITMAP
E000
E000
E000
E000
FF80
ENDCHAR

STARTCHAR char29
ENCODING 29
SWIDTH 680 0
DWIDTH 17 0
BBX 9 5 1 4
BITMAP
3600
7700
FF80
7700
3600
ENDCHAR

STARTCHAR char30
ENCODING 30
SWIDTH 680 0
DWIDTH 17 0
BBX 8 4 1 6
BITMAP
18
3C
7E
FF
ENDCHAR

STARTCHAR char31
ENCODING 31
SWIDTH 680 0
DWIDTH 17 0
BBX 8 4 1 3
BITMAP
FF
7E
3C
18
ENDCHAR

STARTCHAR char32
ENCODING 32
SWIDTH 680 0
DWIDTH 17 0
BBX 0 0 0 0
BITMAP
ENDCHAR

STARTCHAR char33
ENCODING 33
SWIDTH 680 0
DWIDTH 17 0
BBX 3 16 6 0
BITMAP
E0
E0
E0
E0
E0
E0
E0
E0
C0
C0
C0
00
00
00
E0
E0
ENDCHAR

STARTCHAR char34
ENCODING 34
SWIDTH 680 0
DWIDTH 17 0
BBX 9 7 3 9
BITMAP
F780
F780
F780
F780
6300
6300
6300
ENDCHAR

STARTCHAR char35
ENCODING 35
SWIDTH 680 0
DWIDTH 17 0
BBX 11 17 2 -1
BITMAP
0D80
0D80
0D80
0D80
0D80
0D80
7FE0
1B00
1B00
1B00
FFC0
1B00
1B00
1B00
1B00
1B00
1B00
ENDCHAR

STARTCHAR char36
ENCODING 36
SWIDTH 680 0
DWIDTH 17 0
BBX 10 20 3 -3
BITMAP
0C00
0C00
0C00
1FC0
31C0
60C0
6000
6000
3000
1F00
0180
00C0
00C0
C0C0
E180
FF00
0C00
0C00
0C00
0C00
ENDCHAR

STARTCHAR char37
ENCODING 37
SWIDTH 680 0
DWIDTH 17 0
BBX 13 16 1 0
BITMAP
1E00
3300
6180
6180
6180
3300
1E78
03C0
1E00
F1E0
0330
0618
0618
0618
0330
01E0
ENDCHAR

STARTCHAR char38
ENCODING 38
SWIDTH 680 0
DWIDTH 17 0
BBX 11 13 2 0
BITMAP
1F80
3700
3000
3000
1800
3800
6DC0
CD80
C700
C300
C380
6780
3CE0
ENDCHAR

STARTCHAR char39
ENCODING 39
SWIDTH 680 0
DWIDTH 17 0
BBX 6 6 6 10
BITMAP
3C
3C
78
70
E0
C0
ENDCHAR

STARTCHAR char40
ENCODING 40
SWIDTH 680 0
DWIDTH 17 0
BBX 5 19 7 -3
BITMAP
18
30
30
60
60
60
C0
C0
C0
C0
C0
C0
C0
60
60
60
30
30
18
ENDCHAR

STARTCHAR char41
ENCODING 41
SWIDTH 680 0
DWIDTH 17 0
BBX 5 19 3 -3
BITMAP
C0
60
60
30
30
30
18
18
18
18
18
18
18
30
30
30
60
60
C0
ENDCHAR

STARTCHAR char42
ENCODING 42
SWIDTH 680 0
DWIDTH 17 0
BBX 10 9 3 7
BITMAP
0C00
0C00
0C00
EDC0
7F80
1E00
3F00
7380
E1C0
ENDCHAR

STARTCHAR char43
ENCODING 43
SWIDTH 680 0
DWIDTH 17 0
BBX 12 11 2 2
BITMAP
0600
0600
0600
0600
0600
FFF0
0600
0600
0600
0600
0600
ENDCHAR

STARTCHAR char44
ENCODING 44
SWIDTH 680 0
DWIDTH 17 0
BBX 6 6 4 -3
BITMAP
3C
3C
78
70
E0
C0
ENDCHAR

STARTCHAR char45
ENCODING 45
SWIDTH 680 0
DWIDTH 17 0
BBX 12 1 2 7
BITMAP
FFF0
ENDCHAR

STARTCHAR char46
ENCODING 46
SWIDTH 680 0
DWIDTH 17 0
BBX 4 3 6 0
BITMAP
F0
F0
F0
ENDCHAR

STARTCHAR char47
ENCODING 47
SWIDTH 680 0
DWIDTH 17 0
BBX 10 18 3 -2
BITMAP
00C0
00C0
0180
0180
0300
0300
0600
0600
0C00
0C00
1800
1800
3000
3000
6000
6000
C000
C000
ENDCHAR

STARTCHAR char48
ENCODING 48
SWIDTH 680 0
DWIDTH 17 0
BBX 10 15 3 0
BITMAP
1E00
7380
6180
C0C0
C0C0
C0C0
C0C0
C0C0
C0C0
C0C0
C0C0
C0C0
6180
7380
1E00
ENDCHAR

STARTCHAR char49
ENCODING 49
SWIDTH 680 0
DWIDTH 17 0
BBX 10 15 3 0
BITMAP
1C00
FC00
0C00
0C00
0C00
0C00
0C00
0C00
0C00
0C00
0C00
0C00
0C00
0C00
FFC0
ENDCHAR

STARTCHAR char50
ENCODING 50
SWIDTH 680 0
DWIDTH 17 0
BBX 11 15 2 0
BITMAP
1F00
7180
C0C0
C0C0
00C0
00C0
0180
0300
0600
0C00
1800
3000
6000
C060
FFE0
ENDCHAR

STARTCHAR char51
ENCODING 51
SWIDTH 680 0
DWIDTH 17 0
BBX 11 15 2 0
BITMAP
3F00
61C0
00C0
00C0
00C0
0180
1F00
01C0
0060
0060
0060
0060
C060
71C0
1F00
ENDCHAR

STARTCHAR char52
ENCODING 52
SWIDTH 680 0
DWIDTH 17 0
BBX 11 15 2 0
BITMAP
0380
0780
0D80
0D80
1980
3180
3180
6180
6180
C180
FFE0
0180
0180
0180
0FE0
ENDCHAR

STARTCHAR char53
ENCODING 53
SWIDTH 680 0
DWIDTH 17 0
BBX 11 15 2 0
BITMAP
7FC0
6000
6000
6000
6000
7F00
71C0
00C0
0060
0060
0060
0060
00C0
E1C0
3F00
ENDCHAR

STARTCHAR char54
ENCODING 54
SWIDTH 680 0
DWIDTH 17 0
BBX 10 15 3 0
BITMAP
0F80
3800
7000
6000
C000
DF00
F180
E0C0
C0C0
C0C0
C0C0
C0C0
60C0
7180
1F00
ENDCHAR

STARTCHAR char55
ENCODING 55
SWIDTH 680 0
DWIDTH 17 0
BBX 10 15 2 0
BITMAP
FFC0
C0C0
C180
0180
0180
0300
0300
0300
0300
0600
0600
0600
0C00
0C00
0C00
ENDCHAR

STARTCHAR char56
ENCODING 56
SWIDTH 680 0
DWIDTH 17 0
BBX 11 15 2 0
BITMAP
1F00
3180
60C0
60C0
60C0
60C0
3180
3F80
60C0
C060
C060
C060
60C0
71C0
1F00
ENDCHAR

STARTCHAR char57
ENCODING 57
SWIDTH 680 0
DWIDTH 17 0
BBX 10 15 3 0
BITMAP
1E00
7380
E1C0
C0C0
C0C0
C0C0
61C0
73C0
1EC0
00C0
00C0
0180
0180
0700
FC00
ENDCHAR

STARTCHAR char58
ENCODING 58
SWIDTH 680 0
DWIDTH 17 0
BBX 4 11 6 0
BITMAP
F0
F0
F0
00
00
00
00
00
F0
F0
F0
ENDCHAR

STARTCHAR char59
ENCODING 59
SWIDTH 680 0
DWIDTH 17 0
BBX 6 14 4 -3
BITMAP
3C
3C
3C
00
00
00
00
00
3C
3C
78
70
E0
C0
ENDCHAR

STARTCHAR char60
ENCODING 60
SWIDTH 680 0
DWIDTH 17 0
BBX 12 11 1 2
BITMAP
0070
01C0
0700
1C00
7000
E000
7000
1C00
0700
01C0
0070
ENDCHAR

STARTCHAR char61
ENCODING 61
SWIDTH 680 0
DWIDTH 17 0
BBX 13 4 1 5
BITMAP
FFF8
0000
0000
FFF8
ENDCHAR

STARTCHAR char62
ENCODING 62
SWIDTH 680 0
DWIDTH 17 0
BBX 12 11 2 2
BITMAP
E000
3800
0E00
0380
00E0
0070
00E0
0380
0E00
3800
E000
ENDCHAR

STARTCHAR char63
ENCODING 63
SWIDTH 680 0
DWIDTH 17 0
BBX 9 14 3 0
BITMAP
7E00
C300
C180
0180
0180
0180
0300
0E00
1800
1800
0000
0000
1C00
1C00
ENDCHAR

STARTCHAR char64
ENCODING 64
SWIDTH 680 0
DWIDTH 17 0
BBX 11 18 2 -2
BITMAP
1F00
7180
60C0
C0C0
C0C0
C3C0
C6C0
CCC0
CCC0
CCC0
CCC0
C6C0
C3E0
C000
C000
6000
71C0
1F80
ENDCHAR

STARTCHAR char65
ENCODING 65
SWIDTH 680 0
DWIDTH 17 0
BBX 14 14 1 0
BITMAP
3F80
0780
0CC0
0CC0
0CC0
1860
1860
1860
3FF0
3030
3030
6018
6018
F87C
ENDCHAR

STARTCHAR char66
ENCODING 66
SWIDTH 680 0
DWIDTH 17 0
BBX 13 14 1 0
BITMAP
FFE0
3030
3018
3018
3018
3030
3FE0
3030
3018
3018
3018
3018
3030
FFE0
ENDCHAR

STARTCHAR char67
ENCODING 67
SWIDTH 680 0
DWIDTH 17 0
BBX 12 14 2 0
BITMAP
0FB0
38F0
7070
6030
C000
C000
C000
C000
C000
C000
6030
7070
38E0
0F80
ENDCHAR

STARTCHAR char68
ENCODING 68
SWIDTH 680 0
DWIDTH 17 0
BBX 13 14 1 0
BITMAP
FFC0
6070
6030
6018
6018
6018
6018
6018
6018
6018
6018
6030
6070
FFC0
ENDCHAR

STARTCHAR char69
ENCODING 69
SWIDTH 680 0
DWIDTH 17 0
BBX 13 14 1 0
BITMAP
FFF0
3030
3030
3030
3300
3300
3F00
3300
3300
3018
3018
3018
3018
FFF8
ENDCHAR

STARTCHAR char70
ENCODING 70
SWIDTH 680 0
DWIDTH 17 0
BBX 12 14 2 0
BITMAP
FFF0
3030
3030
3030
3300
3300
3F00
3300
3300
3000
3000
3000
3000
FF00
ENDCHAR

STARTCHAR char71
ENCODING 71
SWIDTH 680 0
DWIDTH 17 0
BBX 13 14 1 0
BITMAP
0FB0
38F0
7070
6030
C000
C000
C000
C000
C3F8
C030
6030
7030
3860
0FC0
ENDCHAR

STARTCHAR char72
ENCODING 72
SWIDTH 680 0
DWIDTH 17 0
BBX 14 14 1 0
BITMAP
FCFC
3030
3030
3030
3030
3030
3FF0
3030
3030
3030
3030
3030
3030
FCFC
ENDCHAR

STARTCHAR char73
ENCODING 73
SWIDTH 680 0
DWIDTH 17 0
BBX 10 14 3 0
BITMAP
FFC0
0C00
0C00
0C00
0C00
0C00
0C00
0C00
0C00
0C00
0C00
0C00
0C00
FFC0
ENDCHAR

STARTCHAR char74
ENCODING 74
SWIDTH 680 0
DWIDTH 17 0
BBX 13 14 2 0
BITMAP
1FF8
00C0
00C0
00C0
00C0
00C0
00C0
00C0
C0C0
C0C0
C0C0
C180
6380
3E00
ENDCHAR

STARTCHAR char75
ENCODING 75
SWIDTH 680 0
DWIDTH 17 0
BBX 14 14 1 0
BITMAP
FCF8
3060
30C0
3180
3300
3600
3E00
3B00
3180
30C0
3060
3060
3030
FC7C
ENDCHAR

STARTCHAR char76
ENCODING 76
SWIDTH 680 0
DWIDTH 17 0
BBX 13 14 1 0
BITMAP
FF00
1800
1800
1800
1800
1800
1800
1800
1800
1818
1818
1818
1818
FFF8
ENDCHAR

STARTCHAR char77
ENCODING 77
SWIDTH 680 0
DWIDTH 17 0
BBX 14 14 1 0
BITMAP
F03C
7038
7038
7878
7878
6CD8
6CD8
6798
6798
6018
6018
6018
6018
F87C
ENDCHAR

STARTCHAR char78
ENCODING 78
SWIDTH 680 0
DWIDTH 17 0
BBX 15 14 0 0
BITMAP
F8FE
3818
3C18
3618
3618
3318
3318
3198
3198
30D8
30D8
3078
3038
FE38
ENDCHAR

STARTCHAR char79
ENCODING 79
SWIDTH 680 0
DWIDTH 17 0
BBX 14 14 1 0
BITMAP
0FC0
3870
7038
6018
C00C
C00C
C00C
C00C
C00C
C00C
6018
7038
3870
0FC0
ENDCHAR

STARTCHAR char80
ENCODING 80
SWIDTH 680 0
DWIDTH 17 0
BBX 12 14 2 0
BITMAP
FFC0
3060
3030
3030
3030
3030
3060
3FC0
3000
3000
3000
3000
3000
FF00
ENDCHAR

STARTCHAR char81
ENCODING 81
SWIDTH 680 0
DWIDTH 17 0
BBX 14 16 1 -2
BITMAP
0FC0
3870
7038
6018
C00C
C00C
C00C
C00C
C00C
C00C
6018
7038
3870
0FC0
0738
1FE0
ENDCHAR

STARTCHAR char82
ENCODING 82
SWIDTH 680 0
DWIDTH 17 0
BBX 14 14 1 0
BITMAP
FFC0
3060
3030
3030
3030
3030
3060
3FC0
3180
30C0
3060
3060
3030
FC3C
ENDCHAR

STARTCHAR char83
ENCODING 83
SWIDTH 680 0
DWIDTH 17 0
BBX 11 14 2 0
BITMAP
1F60
71E0
C0E0
C060
C000
7000
1F00
01C0
0060
0060
C060
E060
F0C0
DF80
ENDCHAR

STARTCHAR char84
ENCODING 84
SWIDTH 680 0
DWIDTH 17 0
BBX 12 14 2 0
BITMAP
FFF0
C630
C630
C630
C630
0600
0600
0600
0600
0600
0600
0600
0600
3FC0
ENDCHAR

STARTCHAR char85
ENCODING 85
SWIDTH 680 0
DWIDTH 17 0
BBX 13 14 1 0
BITMAP
FDF8
6030
6030
6030
6030
6030
6030
6030
6030
6030
6030
6030
3060
1FC0
ENDCHAR

STARTCHAR char86
ENCODING 86
SWIDTH 680 0
DWIDTH 17 0
BBX 14 14 1 0
BITMAP
FCFC
6018
6018
3030
3030
1860
1860
1860
0CC0
0CC0
0CC0
0780
0780
0300
ENDCHAR

STARTCHAR char87
ENCODING 87
SWIDTH 680 0
DWIDTH 17 0
BBX 14 14 1 0
BITMAP
FCFC
6018
6018
6318
6318
6798
6798
37B0
3CF0
3CF0
3CF0
3870
3870
3870
ENDCHAR

STARTCHAR char88
ENCODING 88
SWIDTH 680 0
DWIDTH 17 0
BBX 14 14 1 0
BITMAP
FCFC
3030
1860
1860
0CC0
0780
0300
0780
0CC0
0CC0
1860
3030
3030
FCFC
ENDCHAR

STARTCHAR char89
ENCODING 89
SWIDTH 680 0
DWIDTH 17 0
BBX 14 14 1 0
BITMAP
F87C
3030
1860
1860
0CC0
0CC0
0780
0300
0300
0300
0300
0300
0300
1FE0
ENDCHAR

STARTCHAR char90
ENCODING 90
SWIDTH 680 0
DWIDTH 17 0
BBX 11 14 2 0
BITMAP
FFE0
C060
C0C0
C180
C300
0300
0600
0C00
1800
1860
3060
6060
C060
FFE0
ENDCHAR

STARTCHAR char91
ENCODING 91
SWIDTH 680 0
DWIDTH 17 0
BBX 4 19 7 -3
BITMAP
F0
C0
C0
C0
C0
C0
C0
C0
C0
C0
C0
C0
C0
C0
C0
C0
C0
C0
F0
ENDCHAR

STARTCHAR char92
ENCODING 92
SWIDTH 680 0
DWIDTH 17 0
BBX 10 18 3 -2
BITMAP
C000
C000
6000
6000
3000
3000
1800
1800
0C00
0C00
0600
0600
0300
0300
0180
0180
00C0
00C0
ENDCHAR

STARTCHAR char93
ENCODING 93
SWIDTH 680 0
DWIDTH 17 0
BBX 4 19 5 -3
BITMAP
F0
30
30
30
30
30
30
30
30
30
30
30
30
30
30
30
30
30
F0
ENDCHAR

STARTCHAR char94
ENCODING 94
SWIDTH 680 0
DWIDTH 17 0
BBX 10 5 3 11
BITMAP
0C00
1E00
3300
6180
C0C0
ENDCHAR

STARTCHAR char95
ENCODING 95
SWIDTH 680 0
DWIDTH 17 0
BBX 16 1 0 -5
BITMAP
FFFF
ENDCHAR

STARTCHAR char96
ENCODING 96
SWIDTH 680 0
DWIDTH 17 0
BBX 6 6 5 10
BITMAP
F0
F0
78
38
1C
0C
ENDCHAR

STARTCHAR char97
ENCODING 97
SWIDTH 680 0
DWIDTH 17 0
BBX 12 11 2 0
BITMAP
3F00
6180
00C0
00C0
3FC0
61C0
C0C0
C0C0
C0C0
61C0
3FF0
ENDCHAR

STARTCHAR char98
ENCODING 98
SWIDTH 680 0
DWIDTH 17 0
BBX 14 15 1 0
BITMAP
F000
3000
3000
3000
37E0
3C38
3818
300C
300C
300C
300C
300C
3818
3C38
F7E0
ENDCHAR

STARTCHAR char99
ENCODING 99
SWIDTH 680 0
DWIDTH 17 0
BBX 12 11 2 0
BITMAP
1FE0
70E0
6060
C060
C000
C000
C000
C000
6070
70E0
1F80
ENDCHAR

STARTCHAR char100
ENCODING 100
SWIDTH 680 0
DWIDTH 17 0
BBX 14 15 1 0
BITMAP
00F0
0030
0030
0030
1FB0
70F0
6070
C030
C030
C030
C030
C030
6070
70F0
1FBC
ENDCHAR

STARTCHAR char101
ENCODING 101
SWIDTH 680 0
DWIDTH 17 0
BBX 12 11 2 0
BITMAP
1F80
70E0
6060
C030
C030
FFF0
C000
C000
6000
7070
1FC0
ENDCHAR

STARTCHAR char102
ENCODING 102
SWIDTH 680 0
DWIDTH 17 0
BBX 11 15 3 0
BITMAP
0FC0
1C60
1800
1800
FFC0
1800
1800
1800
1800
1800
1800
1800
1800
1800
FFC0
ENDCHAR

STARTCHAR char103
ENCODING 103
SWIDTH 680 0
DWIDTH 17 0
BBX 14 16 1 -5
BITMAP
1FBC
70F0
6070
C030
C030
C030
C030
C030
6070
70F0
1FB0
0030
0030
0060
00E0
3F80
ENDCHAR

STARTCHAR char104
ENCODING 104
SWIDTH 680 0
DWIDTH 17 0
BBX 14 15 1 0
BITMAP
F000
3000
3000
3000
37C0
3C60
3830
3030
3030
3030
3030
3030
3030
3030
FCFC
ENDCHAR

STARTCHAR char105
ENCODING 105
SWIDTH 680 0
DWIDTH 17 0
BBX 10 16 3 0
BITMAP
0C00
0C00
0C00
0000
0000
7C00
0C00
0C00
0C00
0C00
0C00
0C00
0C00
0C00
0C00
FFC0
ENDCHAR

STARTCHAR char106
ENCODING 106
SWIDTH 680 0
DWIDTH 17 0
BBX 9 21 3 -5
BITMAP
0300
0300
0300
0000
0000
FF80
0180
0180
0180
0180
0180
0180
0180
0180
0180
0180
0180
0180
0300
0700
FC00
ENDCHAR

STARTCHAR char107
ENCODING 107
SWIDTH 680 0
DWIDTH 17 0
BBX 12 15 2 0
BITMAP
F000
3000
3000
3000
33E0
3180
3300
3600
3C00
3C00
3600
3300
3180
30C0
F1F0
ENDCHAR

STARTCHAR char108
ENCODING 108
SWIDTH 680 0
DWIDTH 17 0
BBX 12 15 2 0
BITMAP
7E00
0600
0600
0600
0600
0600
0600
0600
0600
0600
0600
0600
0600
0600
FFF0
ENDCHAR

STARTCHAR char109
ENCODING 109
SWIDTH 680 0
DWIDTH 17 0
BBX 15 11 0 0
BITMAP
FF78
39CC
318C
318C
318C
318C
318C
318C
318C
318C
FDCE
ENDCHAR

STARTCHAR char110
ENCODING 110
SWIDTH 680 0
DWIDTH 17 0
BBX 14 11 1 0
BITMAP
F7C0
3C60
3830
3030
3030
3030
3030
3030
3030
3030
FCFC
ENDCHAR

STARTCHAR char111
ENCODING 111
SWIDTH 680 0
DWIDTH 17 0
BBX 12 11 2 0
BITMAP
1F80
70E0
6060
C030
C030
C030
C030
C030
6060
70E0
1F80
ENDCHAR

STARTCHAR char112
ENCODING 112
SWIDTH 680 0
DWIDTH 17 0
BBX 14 16 1 -5
BITMAP
F7E0
3C38
3818
300C
300C
300C
300C
300C
3818
3C38
37E0
3000
3000
3000
3000
FE00
ENDCHAR

STARTCHAR char113
ENCODING 113
SWIDTH 680 0
DWIDTH 17 0
BBX 14 16 1 -5
BITMAP
1FBC
70F0
6070
C030
C030
C030
C030
C030
6070
70F0
1FB0
0030
0030
0030
0030
01FC
ENDCHAR

STARTCHAR char114
ENCODING 114
SWIDTH 680 0
DWIDTH 17 0
BBX 12 11 2 0
BITMAP
79E0
1F30
1C00
1800
1800
1800
1800
1800
1800
1800
FFC0
ENDCHAR

STARTCHAR char115
ENCODING 115
SWIDTH 680 0
DWIDTH 17 0
BBX 10 11 3 0
BITMAP
3FC0
61C0
60C0
6000
3C00
0780
00C0
00C0
C0C0
E180
FF00
ENDCHAR

STARTCHAR char116
ENCODING 116
SWIDTH 680 0
DWIDTH 17 0
BBX 11 15 2 0
BITMAP
3000
3000
3000
3000
FFC0
3000
3000
3000
3000
3000
3000
3000
3000
18E0
0F80
ENDCHAR

STARTCHAR char117
ENCODING 117
SWIDTH 680 0
DWIDTH 17 0
BBX 13 11 1 0
BITMAP
F0F0
3030
3030
3030
3030
3030
3030
3030
3070
18F0
0FB8
ENDCHAR

STARTCHAR char118
ENCODING 118
SWIDTH 680 0
DWIDTH 17 0
BBX 14 11 1 0
BITMAP
FCFC
3030
3030
1860
1860
1860
0CC0
0CC0
0780
0780
0300
ENDCHAR

STARTCHAR char119
ENCODING 119
SWIDTH 680 0
DWIDTH 17 0
BBX 14 11 1 0
BITMAP
F87C
6018
6018
6318
3330
37B0
37B0
37B0
1FE0
1CE0
1CE0
ENDCHAR

STARTCHAR char120
ENCODING 120
SWIDTH 680 0
DWIDTH 17 0
BBX 12 11 2 0
BITMAP
F9F0
6060
30C0
1980
0F00
0600
0F00
1980
30C0
6060
F9F0
ENDCHAR

STARTCHAR char121
ENCODING 121
SWIDTH 680 0
DWIDTH 17 0
BBX 13 16 1 -5
BITMAP
F8F8
6030
6030
3060
3060
30C0
18C0
1980
0D80
0F00
0700
0600
0600
0C00
0C00
FF00
ENDCHAR

STARTCHAR char122
ENCODING 122
SWIDTH 680 0
DWIDTH 17 0
BBX 10 11 3 0
BITMAP
FFC0
C0C0
C180
0300
0600
0C00
1800
3000
60C0
C0C0
FFC0
ENDCHAR

STARTCHAR char123
ENCODING 123
SWIDTH 680 0
DWIDTH 17 0
BBX 6 19 5 -3
BITMAP
1C
30
30
30
30
30
30
30
30
E0
30
30
30
30
30
30
30
30
1C
ENDCHAR

STARTCHAR char166
ENCODING 124
SWIDTH 680 0
DWIDTH 17 0
BBX 2 19 7 -3
BITMAP
C0
C0
C0
C0
C0
C0
C0
C0
00
00
00
C0
C0
C0
C0
C0
C0
C0
C0
ENDCHAR

STARTCHAR char125
ENCODING 125
SWIDTH 680 0
DWIDTH 17 0
BBX 6 19 5 -3
BITMAP
E0
30
30
30
30
30
30
30
30
1C
30
30
30
30
30
30
30
30
E0
ENDCHAR

STARTCHAR char126
ENCODING 126
SWIDTH 680 0
DWIDTH 17 0
BBX 13 3 1 6
BITMAP
3E38
7770
E3E0
ENDCHAR

STARTCHAR char127
ENCODING 127
SWIDTH 680 0
DWIDTH 17 0
BBX 8 8 1 4
BITMAP
18
3C
66
C3
C3
C3
C3
FF
ENDCHAR

STARTCHAR char199
ENCODING 128
SWIDTH 680 0
DWIDTH 17 0
BBX 12 18 2 -4
BITMAP
0FB0
38F0
7070
6030
C000
C000
C000
C000
C000
C000
6030
7070
38E0
0F80
0600
0300
1B00
0E00
ENDCHAR

STARTCHAR char252
ENCODING 129
SWIDTH 680 0
DWIDTH 17 0
BBX 13 15 1 0
BITMAP
1DC0
1DC0
0000
0000
F0F0
3030
3030
3030
3030
3030
3030
3030
3070
18F0
0FB8
ENDCHAR

STARTCHAR char233
ENCODING 130
SWIDTH 680 0
DWIDTH 17 0
BBX 12 16 2 0
BITMAP
01C0
0380
0700
0E00
0000
1F80
70E0
6060
C030
C030
FFF0
C000
C000
6000
7070
1FC0
ENDCHAR

STARTCHAR char226
ENCODING 131
SWIDTH 680 0
DWIDTH 17 0
BBX 12 16 2 0
BITMAP
0E00
1F00
3B80
71C0
0000
1F00
7180
00C0
00C0
00C0
3FC0
60C0
C0C0
C0C0
C1C0
7FF0
ENDCHAR

STARTCHAR char228
ENCODING 132
SWIDTH 680 0
DWIDTH 17 0
BBX 12 15 2 0
BITMAP
39C0
39C0
0000
0000
1F00
7180
00C0
00C0
00C0
3FC0
60C0
C0C0
C0C0
C1C0
7FF0
ENDCHAR

STARTCHAR char224
ENCODING 133
SWIDTH 680 0
DWIDTH 17 0
BBX 12 16 2 0
BITMAP
3800
1C00
0E00
0700
0000
1F00
7180
00C0
00C0
00C0
3FC0
60C0
C0C0
C0C0
C1C0
7FF0
ENDCHAR

STARTCHAR char229
ENCODING 134
SWIDTH 680 0
DWIDTH 17 0
BBX 12 17 2 0
BITMAP
0F00
1980
1980
1980
0F00
0000
1F00
7180
00C0
00C0
00C0
3FC0
60C0
C0C0
C0C0
C1C0
7FF0
ENDCHAR

STARTCHAR char231
ENCODING 135
SWIDTH 680 0
DWIDTH 17 0
BBX 12 15 2 -4
BITMAP
1FE0
70E0
6060
C060
C000
C000
C000
C000
6070
70E0
1F80
0600
0300
1B00
0E00
ENDCHAR

STARTCHAR char234
ENCODING 136
SWIDTH 680 0
DWIDTH 17 0
BBX 12 16 2 0
BITMAP
0E00
1F00
3B80
71C0
0000
1F80
70E0
6060
C030
C030
FFF0
C000
C000
6000
7070
1FC0
ENDCHAR

STARTCHAR char235
ENCODING 137
SWIDTH 680 0
DWIDTH 17 0
BBX 12 15 2 0
BITMAP
39C0
39C0
0000
0000
1F80
70E0
6060
C030
C030
FFF0
C000
C000
6000
7070
1FC0
ENDCHAR

STARTCHAR char232
ENCODING 138
SWIDTH 680 0
DWIDTH 17 0
BBX 12 16 2 0
BITMAP
3800
1C00
0E00
0700
0000
1F80
70E0
6060
C030
C030
FFF0
C000
C000
6000
7070
1FC0
ENDCHAR

STARTCHAR char239
ENCODING 139
SWIDTH 680 0
DWIDTH 17 0
BBX 10 15 3 0
BITMAP
7380
7380
0000
0000
7C00
0C00
0C00
0C00
0C00
0C00
0C00
0C00
0C00
0C00
FFC0
ENDCHAR

STARTCHAR char238
ENCODING 140
SWIDTH 680 0
DWIDTH 17 0
BBX 10 16 3 0
BITMAP
1C00
3E00
7700
E380
0000
7C00
0C00
0C00
0C00
0C00
0C00
0C00
0C00
0C00
0C00
FFC0
ENDCHAR

STARTCHAR char236
ENCODING 141
SWIDTH 680 0
DWIDTH 17 0
BBX 10 16 3 0
BITMAP
7000
3800
1C00
0E00
0000
7C00
0C00
0C00
0C00
0C00
0C00
0C00
0C00
0C00
0C00
FFC0
ENDCHAR

STARTCHAR char196
ENCODING 142
SWIDTH 680 0
DWIDTH 17 0
BBX 14 18 1 0
BITMAP
1CE0
1CE0
0000
0000
3F80
0780
0CC0
0CC0
0CC0
1860
1860
1860
3FF0
3030
3030
6018
6018
F87C
ENDCHAR

STARTCHAR char197
ENCODING 143
SWIDTH 680 0
DWIDTH 17 0
BBX 14 19 1 0
BITMAP
0780
0CC0
0CC0
0CC0
0780
3F80
0780
0CC0
0CC0
0CC0
1860
1860
1860
3FF0
3030
3030
6018
6018
F87C
ENDCHAR

STARTCHAR char201
ENCODING 144
SWIDTH 680 0
DWIDTH 17 0
BBX 13 19 1 0
BITMAP
00E0
01C0
0380
0700
0000
FFF0
3030
3030
3030
3300
3300
3F00
3300
3300
3018
3018
3018
3018
FFF8
ENDCHAR

STARTCHAR char230
ENCODING 145
SWIDTH 680 0
DWIDTH 17 0
BBX 16 11 0 0
BITMAP
1E78
73CE
6186
0183
0183
3FFF
6180
C180
C183
C3C6
7E7C
ENDCHAR

STARTCHAR char198
ENCODING 146
SWIDTH 680 0
DWIDTH 17 0
BBX 16 14 -1 0
BITMAP
0FFF
03C3
06C3
06C3
06CC
0CCC
0CFC
0CCC
1FCC
18C3
18C3
30C3
30C3
FBFF
ENDCHAR

STARTCHAR char244
ENCODING 147
SWIDTH 680 0
DWIDTH 17 0
BBX 12 16 2 0
BITMAP
0E00
1F00
3B80
71C0
0000
1F80
70E0
6060
C030
C030
C030
C030
C030
6060
70E0
1F80
ENDCHAR

STARTCHAR char246
ENCODING 148
SWIDTH 680 0
DWIDTH 17 0
BBX 12 15 2 0
BITMAP
39C0
39C0
0000
0000
1F80
70E0
6060
C030
C030
C030
C030
C030
6060
70E0
1F80
ENDCHAR

STARTCHAR char242
ENCODING 149
SWIDTH 680 0
DWIDTH 17 0
BBX 12 16 2 0
BITMAP
1C00
0E00
0700
0380
0000
1F80
70E0
6060
C030
C030
C030
C030
C030
6060
70E0
1F80
ENDCHAR

STARTCHAR char251
ENCODING 150
SWIDTH 680 0
DWIDTH 17 0
BBX 13 16 1 0
BITMAP
0700
0F80
1DC0
38E0
0000
F0F0
3030
3030
3030
3030
3030
3030
3030
3070
18F0
0FB8
ENDCHAR

STARTCHAR char249
ENCODING 151
SWIDTH 680 0
DWIDTH 17 0
BBX 13 16 1 0
BITMAP
1C00
0E00
0700
0380
0000
F0F0
3030
3030
3030
3030
3030
3030
3030
3070
18F0
0FB8
ENDCHAR

STARTCHAR char255
ENCODING 152
SWIDTH 680 0
DWIDTH 17 0
BBX 13 20 1 -5
BITMAP
39C0
39C0
0000
0000
F8F8
6030
6030
3060
3060
30C0
18C0
1980
0D80
0F00
0700
0600
0600
0C00
0C00
FF00
ENDCHAR

STARTCHAR char214
ENCODING 153
SWIDTH 680 0
DWIDTH 17 0
BBX 14 18 1 0
BITMAP
1CE0
1CE0
0000
0000
0FC0
3870
7038
6018
C00C
C00C
C00C
C00C
C00C
C00C
6018
7038
3870
0FC0
ENDCHAR

STARTCHAR char220
ENCODING 154
SWIDTH 680 0
DWIDTH 17 0
BBX 13 18 1 0
BITMAP
1DC0
1DC0
0000
0000
FDF8
6030
6030
6030
6030
6030
6030
6030
6030
6030
6030
6030
3060
1FC0
ENDCHAR

STARTCHAR char162
ENCODING 155
SWIDTH 680 0
DWIDTH 17 0
BBX 9 16 3 0
BITMAP
0C00
0C00
0C00
0C00
1F80
7380
6180
C000
C000
C000
6000
7380
1E00
0C00
0C00
0C00
ENDCHAR

STARTCHAR char163
ENCODING 156
SWIDTH 680 0
DWIDTH 17 0
BBX 11 14 2 0
BITMAP
0F00
19C0
3000
3000
3000
3000
FF00
1800
1800
1800
1800
3060
6060
FFC0
ENDCHAR

STARTCHAR char165
ENCODING 157
SWIDTH 680 0
DWIDTH 17 0
BBX 12 14 2 0
BITMAP
F9F0
6060
30C0
30C0
1980
1980
0F00
7FE0
0600
0600
7FE0
0600
0600
3FC0
ENDCHAR

STARTCHAR char158
ENCODING 158
SWIDTH 680 0
DWIDTH 17 0
BBX 8 14 4 1
BITMAP
FC
C6
C6
C6
C6
FC
C0
C2
C6
CF
C6
C6
C6
E3
ENDCHAR

STARTCHAR char159
ENCODING 159
SWIDTH 680 0
DWIDTH 17 0
BBX 8 14 4 1
BITMAP
0E
1B
31
30
30
30
FE
30
30
30
30
30
30
E0
ENDCHAR

STARTCHAR char225
ENCODING 160
SWIDTH 680 0
DWIDTH 17 0
BBX 12 16 2 0
BITMAP
01C0
0380
0700
0E00
0000
1F00
7180
00C0
00C0
00C0
3FC0
60C0
C0C0
C0C0
C1C0
7FF0
ENDCHAR

STARTCHAR char237
ENCODING 161
SWIDTH 680 0
DWIDTH 17 0
BBX 10 16 3 0
BITMAP
0380
0700
0E00
1C00
0000
7C00
0C00
0C00
0C00
0C00
0C00
0C00
0C00
0C00
0C00
FFC0
ENDCHAR

STARTCHAR char243
ENCODING 162
SWIDTH 680 0
DWIDTH 17 0
BBX 12 16 2 0
BITMAP
01C0
0380
0700
0E00
0000
1F80
70E0
6060
C030
C030
C030
C030
C030
6060
70E0
1F80
ENDCHAR

STARTCHAR char250
ENCODING 163
SWIDTH 680 0
DWIDTH 17 0
BBX 13 16 1 0
BITMAP
00E0
01C0
0380
0700
0000
F0F0
3030
3030
3030
3030
3030
3030
3030
3070
18F0
0FB8
ENDCHAR

STARTCHAR char241
ENCODING 164
SWIDTH 680 0
DWIDTH 17 0
BBX 14 15 1 0
BITMAP
1E60
3FE0
33C0
0000
F7C0
3C60
3830
3030
3030
3030
3030
3030
3030
3030
FCFC
ENDCHAR

STARTCHAR char209
ENCODING 165
SWIDTH 680 0
DWIDTH 17 0
BBX 15 18 0 0
BITMAP
0F30
1FF0
19E0
0000
F8FE
3818
3C18
3618
3618
3318
3318
3198
3198
30D8
30D8
3078
3038
FE38
ENDCHAR

STARTCHAR char170
ENCODING 166
SWIDTH 680 0
DWIDTH 17 0
BBX 8 9 4 5
BITMAP
7C
C6
3E
66
C6
CE
7F
00
FF
ENDCHAR

STARTCHAR char186
ENCODING 167
SWIDTH 680 0
DWIDTH 17 0
BBX 8 9 4 5
BITMAP
3C
66
C3
C3
C3
66
3C
00
FF
ENDCHAR

STARTCHAR char191
ENCODING 168
SWIDTH 680 0
DWIDTH 17 0
BBX 9 14 3 -3
BITMAP
1C00
1C00
0000
0000
0C00
0C00
3800
6000
C000
C000
C000
C180
6180
3F00
ENDCHAR

STARTCHAR char172
ENCODING 169
SWIDTH 680 0
DWIDTH 17 0
BBX 12 4 2 5
BITMAP
FFF0
C000
C000
C000
ENDCHAR

STARTCHAR char172
ENCODING 170
SWIDTH 680 0
DWIDTH 17 0
BBX 12 4 2 5
BITMAP
FFF0
0030
0030
0030
ENDCHAR

STARTCHAR char189
ENCODING 171
SWIDTH 680 0
DWIDTH 17 0
BBX 15 16 0 0
BITMAP
3800
F800
180C
1818
1830
1830
1860
18FC
FFE6
03C6
0606
060C
0C18
1830
0066
00FE
ENDCHAR

STARTCHAR char188
ENCODING 172
SWIDTH 680 0
DWIDTH 17 0
BBX 15 16 0 0
BITMAP
3800
F800
180C
1818
1830
1830
1860
18DC
FFBC
036C
066C
06CC
0D8C
19FE
000C
001E
ENDCHAR

STARTCHAR char161
ENCODING 173
SWIDTH 680 0
DWIDTH 17 0
BBX 3 16 8 0
BITMAP
E0
E0
00
00
00
E0
E0
E0
E0
E0
E0
E0
E0
E0
E0
E0
ENDCHAR

STARTCHAR char171
ENCODING 174
SWIDTH 680 0
DWIDTH 17 0
BBX 13 11 1 0
BITMAP
0738
0E70
1CE0
39C0
7380
E700
7380
39C0
1CE0
0E70
0738
ENDCHAR

STARTCHAR char187
ENCODING 175
SWIDTH 680 0
DWIDTH 17 0
BBX 13 11 1 0
BITMAP
E700
7380
39C0
1CE0
0E70
0738
0E70
1CE0
39C0
7380
E700
ENDCHAR

STARTCHAR char176
ENCODING 176
SWIDTH 680 0
DWIDTH 17 0
BBX 10 23 2 -5
BITMAP
9240
0000
9240
0000
9240
0000
9240
0000
9240
0000
9240
0000
9240
0000
9240
0000
9240
0000
9240
0000
9240
0000
9240
ENDCHAR

STARTCHAR char177
ENCODING 177
SWIDTH 680 0
DWIDTH 17 0
BBX 11 23 1 -4
BITMAP
AAA0
AAA0
0000
AAA0
AAA0
0000
AAA0
AAA0
0000
AAA0
AAA0
0000
AAA0
AAA0
0000
AAA0
AAA0
0000
AAA0
AAA0
0000
AAA0
AAA0
ENDCHAR

STARTCHAR char178
ENCODING 178
SWIDTH 680 0
DWIDTH 17 0
BBX 11 23 1 -4
BITMAP
DB60
DB60
0000
DB60
DB60
0000
DB60
DB60
0000
DB60
DB60
0000
DB60
DB60
0000
DB60
DB60
0000
DB60
DB60
0000
DB60
DB60
ENDCHAR

STARTCHAR char179
ENCODING 179
SWIDTH 680 0
DWIDTH 17 0
BBX 1 24 8 -5
BITMAP
80
80
80
80
80
80
80
80
80
80
80
80
80
80
80
80
80
80
80
80
80
80
80
80
ENDCHAR

STARTCHAR char180
ENCODING 180
SWIDTH 680 0
DWIDTH 17 0
BBX 10 24 -1 -5
BITMAP
0040
0040
0040
0040
0040
0040
0040
0040
0040
0040
0040
0040
FFC0
0040
0040
0040
0040
0040
0040
0040
0040
0040
0040
0040
ENDCHAR

STARTCHAR char181
ENCODING 181
SWIDTH 680 0
DWIDTH 17 0
BBX 10 24 -1 -5
BITMAP
0040
0040
0040
0040
0040
0040
0040
0040
0040
0040
0040
FFC0
0040
FFC0
0040
0040
0040
0040
0040
0040
0040
0040
0040
0040
ENDCHAR

STARTCHAR char182
ENCODING 182
SWIDTH 680 0
DWIDTH 17 0
BBX 11 24 -1 -5
BITMAP
00A0
00A0
00A0
00A0
00A0
00A0
00A0
00A0
00A0
00A0
00A0
FFA0
00A0
FFA0
00A0
00A0
00A0
00A0
00A0
00A0
00A0
00A0
00A0
00A0
ENDCHAR

STARTCHAR char183
ENCODING 183
SWIDTH 680 0
DWIDTH 17 0
BBX 11 12 -1 -5
BITMAP
FFE0
00A0
00A0
00A0
00A0
00A0
00A0
00A0
00A0
00A0
00A0
00A0
ENDCHAR

STARTCHAR char184
ENCODING 184
SWIDTH 680 0
DWIDTH 17 0
BBX 10 13 -1 -5
BITMAP
FFC0
0040
FFC0
0040
0040
0040
0040
0040
0040
0040
0040
0040
0040
ENDCHAR

STARTCHAR char185
ENCODING 185
SWIDTH 680 0
DWIDTH 17 0
BBX 11 24 -1 -5
BITMAP
00A0
00A0
00A0
00A0
00A0
00A0
00A0
00A0
00A0
00A0
00A0
FFA0
0020
FFA0
00A0
00A0
00A0
00A0
00A0
00A0
00A0
00A0
00A0
00A0
ENDCHAR

STARTCHAR char186
ENCODING 186
SWIDTH 680 0
DWIDTH 17 0
BBX 3 24 7 -5
BITMAP
A0
A0
A0
A0
A0
A0
A0
A0
A0
A0
A0
A0
A0
A0
A0
A0
A0
A0
A0
A0
A0
A0
A0
A0
ENDCHAR

STARTCHAR char187
ENCODING 187
SWIDTH 680 0
DWIDTH 17 0
BBX 11 13 -1 -5
BITMAP
FFE0
0020
FFA0
00A0
00A0
00A0
00A0
00A0
00A0
00A0
00A0
00A0
00A0
ENDCHAR

STARTCHAR char188
ENCODING 188
SWIDTH 680 0
DWIDTH 17 0
BBX 11 14 -1 5
BITMAP
00A0
00A0
00A0
00A0
00A0
00A0
00A0
00A0
00A0
00A0
00A0
FFA0
0020
FFE0
ENDCHAR

STARTCHAR char189
ENCODING 189
SWIDTH 680 0
DWIDTH 17 0
BBX 11 13 -1 6
BITMAP
00A0
00A0
00A0
00A0
00A0
00A0
00A0
00A0
00A0
00A0
00A0
00A0
FFE0
ENDCHAR

STARTCHAR char190
ENCODING 190
SWIDTH 680 0
DWIDTH 17 0
BBX 10 14 -1 5
BITMAP
0040
0040
0040
0040
0040
0040
0040
0040
0040
0040
0040
FFC0
0040
FFC0
ENDCHAR

STARTCHAR char191
ENCODING 191
SWIDTH 680 0
DWIDTH 17 0
BBX 10 12 -1 -5
BITMAP
FFC0
0040
0040
0040
0040
0040
0040
0040
0040
0040
0040
0040
ENDCHAR

STARTCHAR char192
ENCODING 192
SWIDTH 680 0
DWIDTH 17 0
BBX 8 13 8 6
BITMAP
80
80
80
80
80
80
80
80
80
80
80
80
FF
ENDCHAR

STARTCHAR char193
ENCODING 193
SWIDTH 680 0
DWIDTH 17 0
BBX 17 13 -1 6
BITMAP
004000
004000
004000
004000
004000
004000
004000
004000
004000
004000
004000
004000
FFFF80
ENDCHAR

STARTCHAR char194
ENCODING 194
SWIDTH 680 0
DWIDTH 17 0
BBX 17 12 -1 -5
BITMAP
FFFF80
004000
004000
004000
004000
004000
004000
004000
004000
004000
004000
004000
ENDCHAR

STARTCHAR char195
ENCODING 195
SWIDTH 680 0
DWIDTH 17 0
BBX 8 24 8 -5
BITMAP
80
80
80
80
80
80
80
80
80
80
80
80
FF
80
80
80
80
80
80
80
80
80
80
80
ENDCHAR

STARTCHAR char196
ENCODING 196
SWIDTH 680 0
DWIDTH 17 0
BBX 17 1 -1 6
BITMAP
FFFF80
ENDCHAR

STARTCHAR char197
ENCODING 197
SWIDTH 680 0
DWIDTH 17 0
BBX 17 24 -1 -5
BITMAP
004000
004000
004000
004000
004000
004000
004000
004000
004000
004000
004000
004000
FFFF80
004000
004000
004000
004000
004000
004000
004000
004000
004000
004000
004000
ENDCHAR

STARTCHAR char198
ENCODING 198
SWIDTH 680 0
DWIDTH 17 0
BBX 8 24 8 -5
BITMAP
80
80
80
80
80
80
80
80
80
80
80
FF
80
FF
80
80
80
80
80
80
80
80
80
80
ENDCHAR

STARTCHAR char199
ENCODING 199
SWIDTH 680 0
DWIDTH 17 0
BBX 9 24 7 -5
BITMAP
A000
A000
A000
A000
A000
A000
A000
A000
A000
A000
A000
A000
BF80
A000
A000
A000
A000
A000
A000
A000
A000
A000
A000
A000
ENDCHAR

STARTCHAR char200
ENCODING 200
SWIDTH 680 0
DWIDTH 17 0
BBX 9 14 7 5
BITMAP
A000
A000
A000
A000
A000
A000
A000
A000
A000
A000
A000
BF80
8000
FF80
ENDCHAR

STARTCHAR char201
ENCODING 201
SWIDTH 680 0
DWIDTH 17 0
BBX 9 13 7 -5
BITMAP
FF80
8000
BF80
A000
A000
A000
A000
A000
A000
A000
A000
A000
A000
ENDCHAR

STARTCHAR char202
ENCODING 202
SWIDTH 680 0
DWIDTH 17 0
BBX 17 14 -1 5
BITMAP
00A000
00A000
00A000
00A000
00A000
00A000
00A000
00A000
00A000
00A000
00A000
FFBF80
000000
FFFF80
ENDCHAR

STARTCHAR char203
ENCODING 203
SWIDTH 680 0
DWIDTH 17 0
BBX 17 13 -1 -5
BITMAP
FFFF80
000000
FFBF80
00A000
00A000
00A000
00A000
00A000
00A000
00A000
00A000
00A000
00A000
ENDCHAR

STARTCHAR char204
ENCODING 204
SWIDTH 680 0
DWIDTH 17 0
BBX 9 24 7 -5
BITMAP
A000
A000
A000
A000
A000
A000
A000
A000
A000
A000
A000
BF80
8000
BF80
A000
A000
A000
A000
A000
A000
A000
A000
A000
A000
ENDCHAR

STARTCHAR char205
ENCODING 205
SWIDTH 680 0
DWIDTH 17 0
BBX 17 3 -1 5
BITMAP
FFFF80
000000
FFFF80
ENDCHAR

STARTCHAR char206
ENCODING 206
SWIDTH 680 0
DWIDTH 17 0
BBX 17 24 -1 -5
BITMAP
00A000
00A000
00A000
00A000
00A000
00A000
00A000
00A000
00A000
00A000
00A000
FFBF80
000000
FFBF80
00A000
00A000
00A000
00A000
00A000
00A000
00A000
00A000
00A000
00A000
ENDCHAR

STARTCHAR char207
ENCODING 207
SWIDTH 680 0
DWIDTH 17 0
BBX 17 14 -1 5
BITMAP
004000
004000
004000
004000
004000
004000
004000
004000
004000
004000
004000
FFFF80
000000
FFFF80
ENDCHAR

STARTCHAR char208
ENCODING 208
SWIDTH 680 0
DWIDTH 17 0
BBX 17 13 -1 6
BITMAP
00A000
00A000
00A000
00A000
00A000
00A000
00A000
00A000
00A000
00A000
00A000
00A000
FFFF80
ENDCHAR

STARTCHAR char209
ENCODING 209
SWIDTH 680 0
DWIDTH 17 0
BBX 17 13 -1 -5
BITMAP
FFFF80
000000
FFFF80
004000
004000
004000
004000
004000
004000
004000
004000
004000
004000
ENDCHAR

STARTCHAR char210
ENCODING 210
SWIDTH 680 0
DWIDTH 17 0
BBX 17 12 -1 -5
BITMAP
FFFF80
00A000
00A000
00A000
00A000
00A000
00A000
00A000
00A000
00A000
00A000
00A000
ENDCHAR

STARTCHAR char211
ENCODING 211
SWIDTH 680 0
DWIDTH 17 0
BBX 9 13 7 6
BITMAP
A000
A000
A000
A000
A000
A000
A000
A000
A000
A000
A000
A000
FF80
ENDCHAR

STARTCHAR char212
ENCODING 212
SWIDTH 680 0
DWIDTH 17 0
BBX 8 14 8 5
BITMAP
80
80
80
80
80
80
80
80
80
80
80
FF
80
FF
ENDCHAR

STARTCHAR char213
ENCODING 213
SWIDTH 680 0
DWIDTH 17 0
BBX 8 13 8 -5
BITMAP
FF
80
FF
80
80
80
80
80
80
80
80
80
80
ENDCHAR

STARTCHAR char214
ENCODING 214
SWIDTH 680 0
DWIDTH 17 0
BBX 9 12 7 -5
BITMAP
FF80
A000
A000
A000
A000
A000
A000
A000
A000
A000
A000
A000
ENDCHAR

STARTCHAR char215
ENCODING 215
SWIDTH 680 0
DWIDTH 17 0
BBX 17 24 -1 -5
BITMAP
00A000
00A000
00A000
00A000
00A000
00A000
00A000
00A000
00A000
00A000
00A000
00A000
FFFF80
00A000
00A000
00A000
00A000
00A000
00A000
00A000
00A000
00A000
00A000
00A000
ENDCHAR

STARTCHAR char216
ENCODING 216
SWIDTH 680 0
DWIDTH 17 0
BBX 17 24 -1 -5
BITMAP
004000
004000
004000
004000
004000
004000
004000
004000
004000
004000
004000
FFFF80
004000
FFFF80
004000
004000
004000
004000
004000
004000
004000
004000
004000
004000
ENDCHAR

STARTCHAR char217
ENCODING 217
SWIDTH 680 0
DWIDTH 17 0
BBX 10 13 -1 6
BITMAP
0040
0040
0040
0040
0040
0040
0040
0040
0040
0040
0040
0040
FFC0
ENDCHAR

STARTCHAR char218
ENCODING 218
SWIDTH 680 0
DWIDTH 17 0
BBX 8 12 8 -5
BITMAP
FF
80
80
80
80
80
80
80
80
80
80
80
ENDCHAR

STARTCHAR char219
ENCODING 219
SWIDTH 680 0
DWIDTH 17 0
BBX 11 24 0 -5
BITMAP
FFE0
FFE0
FFE0
FFE0
FFE0
FFE0
FFE0
FFE0
FFE0
FFE0
FFE0
FFE0
FFE0
FFE0
FFE0
FFE0
FFE0
FFE0
FFE0
FFE0
FFE0
FFE0
FFE0
FFE0
ENDCHAR

STARTCHAR char220
ENCODING 220
SWIDTH 680 0
DWIDTH 17 0
BBX 11 12 0 -5
BITMAP
FFE0
FFE0
FFE0
FFE0
FFE0
FFE0
FFE0
FFE0
FFE0
FFE0
FFE0
FFE0
ENDCHAR

STARTCHAR char221
ENCODING 221
SWIDTH 680 0
DWIDTH 17 0
BBX 7 24 0 -5
BITMAP
FE
FE
FE
FE
FE
FE
FE
FE
FE
FE
FE
FE
FE
FE
FE
FE
FE
FE
FE
FE
FE
FE
FE
FE
ENDCHAR

STARTCHAR char222
ENCODING 222
SWIDTH 680 0
DWIDTH 17 0
BBX 6 24 6 -5
BITMAP
FC
FC
FC
FC
FC
FC
FC
FC
FC
FC
FC
FC
FC
FC
FC
FC
FC
FC
FC
FC
FC
FC
FC
FC
ENDCHAR

STARTCHAR char223
ENCODING 223
SWIDTH 680 0
DWIDTH 17 0
BBX 11 12 0 7
BITMAP
FFE0
FFE0
FFE0
FFE0
FFE0
FFE0
FFE0
FFE0
FFE0
FFE0
FFE0
FFE0
ENDCHAR

STARTCHAR char224
ENCODING 224
SWIDTH 680 0
DWIDTH 17 0
BBX 10 7 2 3
BITMAP
38C0
ED80
C700
C200
C700
ED80
38C0
ENDCHAR

STARTCHAR char225
ENCODING 225
SWIDTH 680 0
DWIDTH 17 0
BBX 8 13 1 0
BITMAP
0E
1F
33
33
7E
66
63
E3
C3
E3
DE
80
80
ENDCHAR

STARTCHAR char226
ENCODING 226
SWIDTH 680 0
DWIDTH 17 0
BBX 8 12 3 1
BITMAP
FE
63
63
61
60
60
60
60
60
60
60
F0
ENDCHAR

STARTCHAR char227
ENCODING 227
SWIDTH 680 0
DWIDTH 17 0
BBX 11 10 2 1
BITMAP
0020
3FC0
7300
B300
3300
3300
3300
3300
3300
E000
ENDCHAR

STARTCHAR char228
ENCODING 228
SWIDTH 680 0
DWIDTH 17 0
BBX 8 13 3 1
BITMAP
FF
C3
61
30
18
0C
04
08
10
20
41
FF
FF
ENDCHAR

STARTCHAR char229
ENCODING 229
SWIDTH 680 0
DWIDTH 17 0
BBX 9 8 3 2
BITMAP
3F80
7F80
C600
C600
C600
C600
6C00
3800
ENDCHAR

STARTCHAR char230
ENCODING 230
SWIDTH 680 0
DWIDTH 17 0
BBX 9 9 3 1
BITMAP
3180
3180
3180
3180
3180
3380
3F00
B000
F000
ENDCHAR

STARTCHAR char231
ENCODING 231
SWIDTH 680 0
DWIDTH 17 0
BBX 10 9 2 1
BITMAP
3FC0
FF80
8C00
0C00
0C00
1C00
1C00
1C00
1C00
ENDCHAR

STARTCHAR char232
ENCODING 232
SWIDTH 680 0
DWIDTH 17 0
BBX 10 15 2 1
BITMAP
3F00
0C00
0C00
0C00
3F00
6180
C0C0
C0C0
C0C0
6180
3F00
0C00
0C00
0C00
3F00
ENDCHAR

STARTCHAR char233
ENCODING 233
SWIDTH 680 0
DWIDTH 17 0
BBX 9 12 3 2
BITMAP
1C00
3E00
6300
C180
C180
FF80
FF80
C180
C180
6300
3E00
1C00
ENDCHAR

STARTCHAR char234
ENCODING 234
SWIDTH 680 0
DWIDTH 17 0
BBX 10 12 1 1
BITMAP
1E00
3F00
6180
C0C0
C0C0
C0C0
C0C0
C0C0
6180
2100
A140
E1C0
ENDCHAR

STARTCHAR char235
ENCODING 235
SWIDTH 680 0
DWIDTH 17 0
BBX 8 12 3 1
BITMAP
0C
1E
33
31
18
18
3C
6E
C6
C6
EC
3C
ENDCHAR

STARTCHAR char236
ENCODING 236
SWIDTH 680 0
DWIDTH 17 0
BBX 16 7 0 3
BITMAP
3C3C
6666
C3C3
C183
C3C3
6666
3C3C
ENDCHAR

STARTCHAR char237
ENCODING 237
SWIDTH 680 0
DWIDTH 17 0
BBX 10 14 2 -1
BITMAP
0200
0600
0600
1E00
7780
C4C0
C4C0
CCC0
68C0
3B80
1E00
1800
1800
1000
ENDCHAR

STARTCHAR char238
ENCODING 238
SWIDTH 680 0
DWIDTH 17 0
BBX 7 9 3 2
BITMAP
3E
60
C0
C0
FE
C0
C0
60
3E
ENDCHAR

STARTCHAR char239
ENCODING 239
SWIDTH 680 0
DWIDTH 17 0
BBX 7 9 4 2
BITMAP
7C
C6
C6
C6
C6
C6
C6
C6
C6
ENDCHAR

STARTCHAR char240
ENCODING 240
SWIDTH 680 0
DWIDTH 17 0
BBX 11 7 2 3
BITMAP
FFE0
0000
0000
FFE0
0000
0000
FFE0
ENDCHAR

STARTCHAR char177
ENCODING 241
SWIDTH 680 0
DWIDTH 17 0
BBX 12 13 2 1
BITMAP
0600
0600
0600
0600
0600
FFF0
0600
0600
0600
0600
0600
0000
FFF0
ENDCHAR

STARTCHAR char242
ENCODING 242
SWIDTH 680 0
DWIDTH 17 0
BBX 9 13 3 0
BITMAP
6000
3000
1800
0C00
0600
0300
0600
0C00
1800
3000
6000
0000
FF80
ENDCHAR

STARTCHAR char243
ENCODING 243
SWIDTH 680 0
DWIDTH 17 0
BBX 9 13 3 0
BITMAP
0300
0600
0C00
1800
3000
6000
3000
1800
0C00
0600
0300
0000
FF80
ENDCHAR

STARTCHAR char244
ENCODING 244
SWIDTH 680 0
DWIDTH 17 0
BBX 6 16 6 -5
BITMAP
78
EC
CC
C4
C0
C0
C0
C0
C0
C0
C0
C0
C0
C0
C0
C0
ENDCHAR

STARTCHAR char245
ENCODING 245
SWIDTH 680 0
DWIDTH 17 0
BBX 5 15 3 4
BITMAP
18
18
18
18
18
18
18
18
18
18
18
98
D8
F8
70
ENDCHAR

STARTCHAR char247
ENCODING 246
SWIDTH 680 0
DWIDTH 17 0
BBX 12 9 2 3
BITMAP
0F00
0F00
0000
0000
FFF0
0000
0000
0F00
0F00
ENDCHAR

STARTCHAR char126
ENCODING 247
SWIDTH 680 0
DWIDTH 17 0
BBX 13 7 1 4
BITMAP
3E38
7770
E3E0
0000
3E38
7770
E3E0
ENDCHAR

STARTCHAR char176
ENCODING 248
SWIDTH 680 0
DWIDTH 17 0
BBX 8 7 4 9
BITMAP
3C
66
C3
C3
C3
66
3C
ENDCHAR

STARTCHAR char176
ENCODING 249
SWIDTH 680 0
DWIDTH 17 0
BBX 8 7 4 9
BITMAP
3C
7E
FF
FF
FF
7E
3C
ENDCHAR

STARTCHAR char176
ENCODING 250
SWIDTH 680 0
DWIDTH 17 0
BBX 8 7 3 3
BITMAP
3C
7E
FF
FF
FF
7E
3C
ENDCHAR

STARTCHAR char251
ENCODING 251
SWIDTH 680 0
DWIDTH 17 0
BBX 13 8 1 2
BITMAP
03F8
0300
0300
F600
3600
1E00
1C00
0C00
ENDCHAR

STARTCHAR char252
ENCODING 252
SWIDTH 680 0
DWIDTH 17 0
BBX 6 7 3 7
BITMAP
F8
44
44
44
44
44
44
ENDCHAR

STARTCHAR char178
ENCODING 253
SWIDTH 680 0
DWIDTH 17 0
BBX 7 9 4 7
BITMAP
3C
66
C6
06
0C
18
30
66
FE
ENDCHAR

STARTCHAR char254
ENCODING 254
SWIDTH 680 0
DWIDTH 17 0
BBX 7 15 2 -1
BITMAP
FE
FE
FE
FE
FE
FE
FE
FE
FE
FE
FE
FE
FE
FE
FE
ENDCHAR
ENDFONT
